<mxfile host="app.diagrams.net" agent="Mozilla/5.0 (Windows NT 10.0; Win64; x64) AppleWebKit/537.36 (KHTML, like Gecko) Chrome/140.0.0.0 Safari/537.36" version="28.2.5">
  <diagram name="Página-1" id="gAFbm-pbRTv4d4N4CGBL">
    <mxGraphModel dx="820" dy="652" grid="1" gridSize="10" guides="1" tooltips="1" connect="1" arrows="1" fold="1" page="1" pageScale="1" pageWidth="827" pageHeight="1169" math="0" shadow="0">
      <root>
        <mxCell id="0" />
        <mxCell id="1" parent="0" />
        <mxCell id="gY9utHJKjtfVCZrEkNN_-1" value="aeropuerto" style="swimlane;childLayout=stackLayout;horizontal=1;startSize=50;horizontalStack=0;rounded=1;fontSize=14;fontStyle=0;strokeWidth=2;resizeParent=0;resizeLast=1;shadow=0;dashed=0;align=center;arcSize=4;whiteSpace=wrap;html=1;" vertex="1" parent="1">
          <mxGeometry x="130" y="250" width="160" height="120" as="geometry" />
        </mxCell>
        <mxCell id="gY9utHJKjtfVCZrEkNN_-2" value="(id)codigo&lt;div&gt;nombre&lt;/div&gt;&lt;div&gt;ciudad&lt;/div&gt;&lt;div&gt;pais&lt;/div&gt;" style="align=left;strokeColor=none;fillColor=none;spacingLeft=4;spacingRight=4;fontSize=12;verticalAlign=top;resizable=0;rotatable=0;part=1;html=1;whiteSpace=wrap;" vertex="1" parent="gY9utHJKjtfVCZrEkNN_-1">
          <mxGeometry y="50" width="160" height="70" as="geometry" />
        </mxCell>
        <mxCell id="gY9utHJKjtfVCZrEkNN_-3" value="Avion" style="swimlane;childLayout=stackLayout;horizontal=1;startSize=50;horizontalStack=0;rounded=1;fontSize=14;fontStyle=0;strokeWidth=2;resizeParent=0;resizeLast=1;shadow=0;dashed=0;align=center;arcSize=4;whiteSpace=wrap;html=1;" vertex="1" parent="1">
          <mxGeometry x="130" y="530" width="160" height="120" as="geometry" />
        </mxCell>
        <mxCell id="gY9utHJKjtfVCZrEkNN_-4" value="(id)Modelo avion&lt;div&gt;Numero de plazas&lt;/div&gt;" style="align=left;strokeColor=none;fillColor=none;spacingLeft=4;spacingRight=4;fontSize=12;verticalAlign=top;resizable=0;rotatable=0;part=1;html=1;whiteSpace=wrap;" vertex="1" parent="gY9utHJKjtfVCZrEkNN_-3">
          <mxGeometry y="50" width="160" height="70" as="geometry" />
        </mxCell>
        <mxCell id="gY9utHJKjtfVCZrEkNN_-7" style="edgeStyle=none;curved=1;rounded=0;orthogonalLoop=1;jettySize=auto;html=1;exitX=0.5;exitY=1;exitDx=0;exitDy=0;entryX=0.5;entryY=0;entryDx=0;entryDy=0;fontSize=12;startSize=8;endSize=8;" edge="1" parent="1" source="gY9utHJKjtfVCZrEkNN_-5" target="gY9utHJKjtfVCZrEkNN_-3">
          <mxGeometry relative="1" as="geometry" />
        </mxCell>
        <mxCell id="gY9utHJKjtfVCZrEkNN_-5" value="aterrizan" style="shape=rhombus;perimeter=rhombusPerimeter;whiteSpace=wrap;html=1;align=center;" vertex="1" parent="1">
          <mxGeometry x="150" y="420" width="120" height="60" as="geometry" />
        </mxCell>
        <mxCell id="gY9utHJKjtfVCZrEkNN_-6" style="edgeStyle=none;curved=1;rounded=0;orthogonalLoop=1;jettySize=auto;html=1;exitX=0.5;exitY=1;exitDx=0;exitDy=0;entryX=0.5;entryY=0;entryDx=0;entryDy=0;fontSize=12;startSize=8;endSize=8;" edge="1" parent="1" source="gY9utHJKjtfVCZrEkNN_-2" target="gY9utHJKjtfVCZrEkNN_-5">
          <mxGeometry relative="1" as="geometry" />
        </mxCell>
        <mxCell id="gY9utHJKjtfVCZrEkNN_-8" value="1" style="text;html=1;align=center;verticalAlign=middle;resizable=0;points=[];autosize=1;strokeColor=none;fillColor=none;fontSize=16;" vertex="1" parent="1">
          <mxGeometry x="209" y="371" width="30" height="30" as="geometry" />
        </mxCell>
        <mxCell id="gY9utHJKjtfVCZrEkNN_-9" value="N" style="text;html=1;align=center;verticalAlign=middle;resizable=0;points=[];autosize=1;strokeColor=none;fillColor=none;fontSize=16;" vertex="1" parent="1">
          <mxGeometry x="209" y="500" width="40" height="30" as="geometry" />
        </mxCell>
        <mxCell id="gY9utHJKjtfVCZrEkNN_-10" value="Programas de vuelo" style="swimlane;childLayout=stackLayout;horizontal=1;startSize=50;horizontalStack=0;rounded=1;fontSize=14;fontStyle=0;strokeWidth=2;resizeParent=0;resizeLast=1;shadow=0;dashed=0;align=center;arcSize=4;whiteSpace=wrap;html=1;" vertex="1" parent="1">
          <mxGeometry x="530" y="251" width="160" height="120" as="geometry" />
        </mxCell>
        <mxCell id="gY9utHJKjtfVCZrEkNN_-11" value="&lt;div&gt;(id)Numero de vuelo&lt;/div&gt;Compañia&lt;div&gt;Ruta aerea&lt;/div&gt;&lt;div&gt;&lt;br&gt;&lt;/div&gt;" style="align=left;strokeColor=none;fillColor=none;spacingLeft=4;spacingRight=4;fontSize=12;verticalAlign=top;resizable=0;rotatable=0;part=1;html=1;whiteSpace=wrap;" vertex="1" parent="gY9utHJKjtfVCZrEkNN_-10">
          <mxGeometry y="50" width="160" height="70" as="geometry" />
        </mxCell>
        <mxCell id="gY9utHJKjtfVCZrEkNN_-18" style="edgeStyle=none;curved=1;rounded=0;orthogonalLoop=1;jettySize=auto;html=1;exitX=0;exitY=0.5;exitDx=0;exitDy=0;entryX=1;entryY=0;entryDx=0;entryDy=0;fontSize=12;startSize=8;endSize=8;" edge="1" parent="1" source="gY9utHJKjtfVCZrEkNN_-12" target="gY9utHJKjtfVCZrEkNN_-2">
          <mxGeometry relative="1" as="geometry" />
        </mxCell>
        <mxCell id="gY9utHJKjtfVCZrEkNN_-19" style="edgeStyle=none;curved=1;rounded=0;orthogonalLoop=1;jettySize=auto;html=1;exitX=1;exitY=0.5;exitDx=0;exitDy=0;entryX=0;entryY=0;entryDx=0;entryDy=0;fontSize=12;startSize=8;endSize=8;" edge="1" parent="1" source="gY9utHJKjtfVCZrEkNN_-12" target="gY9utHJKjtfVCZrEkNN_-11">
          <mxGeometry relative="1" as="geometry" />
        </mxCell>
        <mxCell id="gY9utHJKjtfVCZrEkNN_-12" value="Despega" style="shape=rhombus;perimeter=rhombusPerimeter;whiteSpace=wrap;html=1;align=center;" vertex="1" parent="1">
          <mxGeometry x="340" y="240" width="120" height="60" as="geometry" />
        </mxCell>
        <mxCell id="gY9utHJKjtfVCZrEkNN_-15" style="edgeStyle=none;curved=1;rounded=0;orthogonalLoop=1;jettySize=auto;html=1;exitX=0;exitY=0.5;exitDx=0;exitDy=0;entryX=1;entryY=0.75;entryDx=0;entryDy=0;fontSize=12;startSize=8;endSize=8;" edge="1" parent="1" source="gY9utHJKjtfVCZrEkNN_-13" target="gY9utHJKjtfVCZrEkNN_-2">
          <mxGeometry relative="1" as="geometry" />
        </mxCell>
        <mxCell id="gY9utHJKjtfVCZrEkNN_-13" value="Aterriza" style="shape=rhombus;perimeter=rhombusPerimeter;whiteSpace=wrap;html=1;align=center;" vertex="1" parent="1">
          <mxGeometry x="340" y="340" width="120" height="60" as="geometry" />
        </mxCell>
        <mxCell id="gY9utHJKjtfVCZrEkNN_-14" style="edgeStyle=none;curved=1;rounded=0;orthogonalLoop=1;jettySize=auto;html=1;exitX=0;exitY=0.5;exitDx=0;exitDy=0;entryX=1;entryY=0.5;entryDx=0;entryDy=0;fontSize=12;startSize=8;endSize=8;" edge="1" parent="1" source="gY9utHJKjtfVCZrEkNN_-11" target="gY9utHJKjtfVCZrEkNN_-13">
          <mxGeometry relative="1" as="geometry" />
        </mxCell>
        <mxCell id="gY9utHJKjtfVCZrEkNN_-16" value="N" style="text;html=1;align=center;verticalAlign=middle;resizable=0;points=[];autosize=1;strokeColor=none;fillColor=none;fontSize=16;" vertex="1" parent="1">
          <mxGeometry x="494" y="341" width="40" height="30" as="geometry" />
        </mxCell>
        <mxCell id="gY9utHJKjtfVCZrEkNN_-17" value="1" style="text;html=1;align=center;verticalAlign=middle;resizable=0;points=[];autosize=1;strokeColor=none;fillColor=none;fontSize=16;" vertex="1" parent="1">
          <mxGeometry x="289" y="361" width="30" height="30" as="geometry" />
        </mxCell>
        <mxCell id="gY9utHJKjtfVCZrEkNN_-20" value="1" style="text;html=1;align=center;verticalAlign=middle;resizable=0;points=[];autosize=1;strokeColor=none;fillColor=none;fontSize=16;" vertex="1" parent="1">
          <mxGeometry x="289" y="261" width="30" height="30" as="geometry" />
        </mxCell>
        <mxCell id="gY9utHJKjtfVCZrEkNN_-21" value="N" style="text;html=1;align=center;verticalAlign=middle;resizable=0;points=[];autosize=1;strokeColor=none;fillColor=none;fontSize=16;" vertex="1" parent="1">
          <mxGeometry x="494" y="261" width="40" height="30" as="geometry" />
        </mxCell>
        <mxCell id="gY9utHJKjtfVCZrEkNN_-26" style="edgeStyle=none;curved=1;rounded=0;orthogonalLoop=1;jettySize=auto;html=1;exitX=0.5;exitY=0;exitDx=0;exitDy=0;entryX=0.5;entryY=1;entryDx=0;entryDy=0;fontSize=12;startSize=8;endSize=8;" edge="1" parent="1" source="gY9utHJKjtfVCZrEkNN_-22" target="gY9utHJKjtfVCZrEkNN_-25">
          <mxGeometry relative="1" as="geometry" />
        </mxCell>
        <mxCell id="gY9utHJKjtfVCZrEkNN_-22" value="Vuelo realizado" style="swimlane;childLayout=stackLayout;horizontal=1;startSize=50;horizontalStack=0;rounded=1;fontSize=14;fontStyle=0;strokeWidth=2;resizeParent=0;resizeLast=1;shadow=0;dashed=0;align=center;arcSize=4;whiteSpace=wrap;html=1;" vertex="1" parent="1">
          <mxGeometry x="534" y="540" width="160" height="120" as="geometry" />
        </mxCell>
        <mxCell id="gY9utHJKjtfVCZrEkNN_-23" value="Fecha&lt;div&gt;Plazas vacias&lt;/div&gt;&lt;div&gt;(id)Modelo del avion&lt;/div&gt;" style="align=left;strokeColor=none;fillColor=none;spacingLeft=4;spacingRight=4;fontSize=12;verticalAlign=top;resizable=0;rotatable=0;part=1;html=1;whiteSpace=wrap;" vertex="1" parent="gY9utHJKjtfVCZrEkNN_-22">
          <mxGeometry y="50" width="160" height="70" as="geometry" />
        </mxCell>
        <mxCell id="gY9utHJKjtfVCZrEkNN_-28" style="edgeStyle=none;curved=1;rounded=0;orthogonalLoop=1;jettySize=auto;html=1;exitX=0.5;exitY=0;exitDx=0;exitDy=0;entryX=0.5;entryY=1;entryDx=0;entryDy=0;fontSize=12;startSize=8;endSize=8;" edge="1" parent="1" source="gY9utHJKjtfVCZrEkNN_-25" target="gY9utHJKjtfVCZrEkNN_-11">
          <mxGeometry relative="1" as="geometry" />
        </mxCell>
        <mxCell id="gY9utHJKjtfVCZrEkNN_-25" value="pertenece" style="shape=rhombus;perimeter=rhombusPerimeter;whiteSpace=wrap;html=1;align=center;" vertex="1" parent="1">
          <mxGeometry x="550" y="420" width="120" height="60" as="geometry" />
        </mxCell>
        <mxCell id="gY9utHJKjtfVCZrEkNN_-27" value="1" style="text;html=1;align=center;verticalAlign=middle;resizable=0;points=[];autosize=1;strokeColor=none;fillColor=none;fontSize=16;" vertex="1" parent="1">
          <mxGeometry x="620" y="510" width="30" height="30" as="geometry" />
        </mxCell>
        <mxCell id="gY9utHJKjtfVCZrEkNN_-29" value="N" style="text;html=1;align=center;verticalAlign=middle;resizable=0;points=[];autosize=1;strokeColor=none;fillColor=none;fontSize=16;" vertex="1" parent="1">
          <mxGeometry x="604" y="371" width="40" height="30" as="geometry" />
        </mxCell>
        <mxCell id="gY9utHJKjtfVCZrEkNN_-30" style="edgeStyle=none;curved=1;rounded=0;orthogonalLoop=1;jettySize=auto;html=1;exitX=0;exitY=0.25;exitDx=0;exitDy=0;entryX=1;entryY=0.5;entryDx=0;entryDy=0;fontSize=12;startSize=8;endSize=8;" edge="1" parent="1" source="gY9utHJKjtfVCZrEkNN_-23" target="gY9utHJKjtfVCZrEkNN_-4">
          <mxGeometry relative="1" as="geometry" />
        </mxCell>
        <mxCell id="gY9utHJKjtfVCZrEkNN_-31" value="N" style="text;html=1;align=center;verticalAlign=middle;resizable=0;points=[];autosize=1;strokeColor=none;fillColor=none;fontSize=16;" vertex="1" parent="1">
          <mxGeometry x="504" y="601" width="40" height="30" as="geometry" />
        </mxCell>
        <mxCell id="gY9utHJKjtfVCZrEkNN_-32" value="1" style="text;html=1;align=center;verticalAlign=middle;resizable=0;points=[];autosize=1;strokeColor=none;fillColor=none;fontSize=16;" vertex="1" parent="1">
          <mxGeometry x="289" y="611" width="30" height="30" as="geometry" />
        </mxCell>
        <mxCell id="gY9utHJKjtfVCZrEkNN_-33" value="&lt;span style=&quot;font-size: 12px; text-align: left;&quot;&gt;Dias de existencias&lt;/span&gt;" style="swimlane;childLayout=stackLayout;horizontal=1;startSize=50;horizontalStack=0;rounded=1;fontSize=14;fontStyle=0;strokeWidth=2;resizeParent=0;resizeLast=1;shadow=0;dashed=0;align=center;arcSize=4;whiteSpace=wrap;html=1;" vertex="1" parent="1">
          <mxGeometry x="820" y="250" width="160" height="120" as="geometry" />
        </mxCell>
        <mxCell id="gY9utHJKjtfVCZrEkNN_-35" style="edgeStyle=none;curved=1;rounded=0;orthogonalLoop=1;jettySize=auto;html=1;exitX=1;exitY=0.25;exitDx=0;exitDy=0;fontSize=12;startSize=8;endSize=8;" edge="1" parent="1" source="gY9utHJKjtfVCZrEkNN_-11">
          <mxGeometry relative="1" as="geometry">
            <mxPoint x="820" y="318.52631578947376" as="targetPoint" />
          </mxGeometry>
        </mxCell>
        <mxCell id="gY9utHJKjtfVCZrEkNN_-36" value="M" style="text;html=1;align=center;verticalAlign=middle;resizable=0;points=[];autosize=1;strokeColor=none;fillColor=none;fontSize=16;" vertex="1" parent="1">
          <mxGeometry x="784" y="291" width="40" height="30" as="geometry" />
        </mxCell>
        <mxCell id="gY9utHJKjtfVCZrEkNN_-37" value="N" style="text;html=1;align=center;verticalAlign=middle;resizable=0;points=[];autosize=1;strokeColor=none;fillColor=none;fontSize=16;" vertex="1" parent="1">
          <mxGeometry x="684" y="291" width="40" height="30" as="geometry" />
        </mxCell>
      </root>
    </mxGraphModel>
  </diagram>
</mxfile>
